
<svg xmlns="http://www.w3.org/2000/svg" width="600" height="282"><path fill="#D52685" d="M245.028 34.72c9.068.1 15.086 3.45 16.036 10.207 1.65 11.747-2.127 31.837-3.739 48.2l3.975-1.132 1.091-.323 1.535-.463 1.032-.32 1.024-.325c6.48-2.076 6.206-2.46 12.756-3.38 8.22-1.155 15.883 12.079 16.89 17.578l.069.434.017.216.004.146-.005.174-.015.2c-.123 1.196-.924 3.347-4.926 4.254l-12.622 2.861-1.849.442-1.91.475-1.154.297-1.62.427c-2.928.785-6.386 1.773-11.005 3.16l-4.51 1.367.27 1.918c18.388 14.285 27.67 28.14 31.51 55.471 7.01 49.869-25.053 86.158-40.157 88.281q-1.784.25-3.433.27l-.41.002c-12.378-.054-19.003-9.738-20.996-23.92-.834-5.933-1.378-12.73-1.555-19.834l-.108-5.163c-.583-33.45 2.914-72.82 2.988-90.832l-7.715 1.857-6.352 1.548-5.948 1.469-4.969 1.242-3.669.929a926 926 0 0 0-14.668 3.844l-2.484.683.27 1.918c18.422 14.525 25.778 32.073 28.945 54.61 7.009 49.868-24.334 86.056-39.199 88.145-1.19.168-2.333.256-3.432.272h-.41c-12.378-.054-19.003-9.738-20.996-23.919-.91-6.473-1.475-13.973-1.594-21.78-1-34.47 4.815-67.533 4.953-85.591l.002-.92-9.3-5.295c-4.515-2.544-8.815-8.785-9.455-13.34l-.234-1.61-.03-.296c-.262-3.112 1.746-3.563 20.869-9.792l.116-2.378.092-2.238.054-1.505.07-2.298.078-3.17c.43-20.026-.192-43.72.457-53.567l.534-.217.295-.111.374-.136.719-.243a36.3 36.3 0 0 1 6.094-1.397c12.947-1.82 21.945 1.316 23.124 9.708 1.651 11.748-.22 36.704-1.832 53.067l4.214-1.178 4.355-1.237 9.734-2.798 14.256-4.118 7.338-2.092a598 598 0 0 1 7.59-2.097l.448-7.327.49-8.759.774-14.95 1.013-20.157c.275-5.299.524-9.768.741-12.86l.534-.218.652-.24.461-.16.565-.183.638-.194a37 37 0 0 1 5.167-1.11c2.354-.331 4.577-.5 6.647-.5zm147.649 87.305c3.795 32.228-6.016 85.927-40.3 90.745a41 41 0 0 1-5.11.407l-.537.003c-9.433-.012-16.037-3.822-20.416-9.817l-.246-.342-.019 2.658v2.682l.015 2.72.039 3.519c.242 17.536 1.179 37.283.968 44.268-.491 5.203-2.649 5.506-5.013 6.083a5 5 0 0 1-.942.096l-.248.004h-.266c-4.488-.037-15.954-1.871-20.588-3.389l-.443-.152c-5.818-1.383-1.637-48.178.52-93.712l-.262-2.75-.163-1.837c-2.63-30.365-3.15-77.792 4.827-78.913 7.192-1.011 23.341 4.299 23.472 6.97-.075 2.944-.15 5.888.015 8.8 5.95-11.595 13.67-19.28 22.542-20.528 25.893-3.639 39.197 17.962 42.155 42.485M174.8 156.557l.008 1.383c-.006 14.208-2.496 46.137-2.064 74.453-.15 5.888-.132 12.976.403 18.524l.08.746c.567 4.892 1.938 8.17 4.246 8.158l.17-.007.175-.018c3.117-.438 16.822-19.479 12.831-56.569l-.482-3.84-.263-1.984-.28-2-.199-1.358-.207-1.35c-1.993-12.673-5.605-27.178-14.418-36.138m-49.679-31.63.135.941c4.482 31.888 3.59 122.963-54.43 131.117a60 60 0 0 1-7.382.586l-1.19.007c-36.68-.19-56.413-36.778-61.051-69.778C-5.333 141.288 15.68 85.525 41.656 75.518c5.203.49 6.432 2.274 9.2 4.575l.5-.336.701-.443.424-.257.496-.292.574-.327.633-.347c2.976-1.602 7.664-3.7 12.882-4.433 39.401-5.537 53.495 20.278 58.056 51.27m128.048 18.66.013 1.47-.001 2.022-.02 2.372-.052 3.48-.125 5.786c-.363 15.136-1.085 36.02-.937 56.907l.077 5.528.037 2.06.048 2.068c.083 3.096.221 6.146.48 8.835l.116 1.075.086.665c.575 4.138 1.755 6.956 4.053 6.93l.189-.01.194-.021c3.081-.433 16.548-18.819 12.76-55.053l-.281-2.563-.161-1.336-.176-1.351-.192-1.364c-1.906-13.01-6.132-27.54-16.108-37.5M73.884 91.64l-.31.002q-.625.014-1.276.105c-17.982 2.528-22.768 29.36-24.076 47.881q-.096 1.644-1.567 1.741l-.189.007-.2-.006c-1.617-.004-6.498-1.511-8.418-2.72l-.306-.21.004.034-.029.144-.647 2.503c-1.702 6.769-5.835 25.882-3.15 51.888 2.678 24.011 11.424 42.536 24.626 42.595l.418-.004q.84-.02 1.703-.142c33.368-4.69 31.146-95.5 29.021-116.783l-.129-1.21c-1.35-12.865-6.096-25.468-15.167-25.818zM524.59.001l.381.003c8.8.133 19.811 3.967 20.331 7.665l-1.621 9.743-1.578 9.817-1.02 6.547-.871 5.74-.822 5.579-.566 3.963c-1.441 10.241-2.617 19.846-2.919 25.699 5.512-14.71 12.791-23.802 22.381-25.15a23 23 0 0 1 3.294-.222l.551.008c17.08.445 34.489 18.985 37.09 37.491 2.729 19.42.1 91.18-38.02 96.538q-4.766.668-9.156.693h-.625c-15.159-.072-26.844-5.921-34.539-16.952-5.086 9.185-13.884 17.838-25.16 19.422-1.574.222-3.07.34-4.488.366l-.603.005c-18.173-.023-23.502-15.742-24.563-28.318l-.068-.881-1.952.03-.478 2.287-.258 1.15-.284 1.204-.304 1.236-.217.847c-3.292 12.69-10.19 30.864-21.797 32.495q-1.007.142-2.073.164l-.428.004c-13.472-.003-32.874-13.552-35.028-28.877-3.943-28.051 2.229-91.997 13.497-93.58a32 32 0 0 1 4.366-.306l.476.002c7.897.096 14.686 2.979 16.65 5.352l-.552 3.242c-4.642 27.894-8.18 63.992-3.728 86.936l.27 1.335 3.252.52c12.664-22.968 21.046-76.4 21.972-101.463l.038-1.136c-.064-2.192 2.678-3.555 6.514-4.094.91-.128 1.871-.184 2.864-.176l.374.006c8.628.205 19.423 5.044 19.718 8.679l.03.94.012.763.005 1.269-.01 1.554-.025 1.78c-.298 17.032-2.32 56.038-.7 70.56l.053.63.07.662.088.673.104.683c1.065 6.522 4.382 13.973 10.354 13.886l.307-.01q.309-.018.628-.063c8.391-1.179 11.16-18.207 11.849-23.85-.164-.976-.317-1.947-.455-2.933C501.506 99.639 513.918 1.81 519.365.557c1.541-.39 3.327-.562 5.225-.557M356.397 94.414l-.275.01q-.277.015-.567.055c-12.707 1.786-18.45 42.69-19.3 55.767-.027.14-.2.217-.472.24l-.144.007c-1.218.025-3.907-.758-5.066-1.533l-.136-.097-.147 1.43-.07.814c-.227 2.773-.5 7.737-.125 12.718l.11 1.078c1.714 15.913 6.627 28.375 14.676 28.313l.264-.007q.397-.016.804-.073c19.737-2.774 20.363-61.33 19.313-76.176l-.33-4.732-.102-1.246-.132-1.376-.076-.702-.083-.697c-.809-6.523-2.683-13.606-7.873-13.79zm206.44-26.79-.247.002a7 7 0 0 0-.784.067c-13.186 1.853-19.918 40.94-20.222 54.429.03.21-.675.523-1.013.62l-.118.028-4.005-.66c.24-.033-1.29 9.961.489 26.092.945 8.357 5.271 14.731 11.15 14.731l.291-.005a9 9 0 0 0 .886-.078c23.954-3.366 20.357-75.093 19.781-81.8l-.357-3.387-.121-.994-.08-.59-.093-.638-.105-.64c-.678-3.91-1.94-6.977-5.212-7.168z"/></svg>