<svg height="400" viewBox="0 0 400 400" width="400" xmlns="http://www.w3.org/2000/svg"><g fill="none" fill-rule="evenodd"><circle cx="200" cy="200" fill="#fff" fill-rule="nonzero" r="200"/><g transform="translate(51 50)"><path d="m127.969032 263.873741c3.435564.623988 6.90015 1.099235 10.37562 1.411229 3.419017.304385 6.309721 1.789706 8.81697 4.560395l.187327.210214 1.607132 1.784897 1.567227-1.788525c2.495245-2.827945 5.353059-4.371363 8.748618-4.734687l.255678-.025038c3.479098-.315622 6.943684-.790869 10.379248-1.407602.674778-.126974 1.306022.206787 1.686945.834403.391807.631244.420829 1.429369.043534 2.053357-1.888709 3.151197-3.965979 6.2653-6.214691 9.310921l-.56574.759961-1.54546 2.017078c-1.619522 2.071565-1.430068 5.103493.636888 6.827547l.121331.097998 2.082379 1.599877c3.446448 2.579393 7.067031 5.020929 10.869006 7.328235.68929.413573 1.001284 1.110118.816264 1.904615-.192275.743707-.823519 1.316906-1.701456 1.480159-4.469498.812635-8.960763 1.42574-13.491934 1.82843-4.460021.40158-8.460513-.867852-11.595661-3.572991l-.194816-.170938-1.89736-1.719596-1.948149 1.715968c-3.167104 2.826086-7.237539 4.157503-11.797733 3.740302-4.516659-.40269-9.018808-1.023051-13.488305-1.835687-.881565-.163253-1.512809-.736451-1.697829-1.480158-.13423-.787241.170508-1.476531.867054-1.890104 3.492771-2.13317 6.840258-4.383804 10.025339-6.746196l.792877-.592923 2.082379-1.596249c2.146312-1.672913 2.406819-4.697319.856901-6.804982l-.091427-.120563-1.541831-2.017078c-2.45242-3.294078-4.70168-6.653457-6.740525-10.067253-.373668-.623989-.341017-1.422113.003627-2.060613.384551-.631244 1.059329-.954122 1.690573-.834403zm65.195896 16.952892c3.428308 1.6289 6.976334 3.123569 10.640452 4.480381.696545.253949 1.048445.852542 1.041803 1.549087-.02238.649384-.493999 1.266116-1.154266 1.527321-3.718535 1.469274-7.491488 2.793436-11.307974 3.950716-3.863649 1.17542-7.596695.794497-10.890773-1.088351-3.381146-1.930011-6.624434-3.972484-9.73712-6.127421-.580454-.399062-.779986-1.019422-.6385-1.6942.141486-.663895.682034-1.113747 1.36044-1.237094 3.176898-.558324 6.336166-1.231252 9.464578-2.016138l1.041644-.265772c3.511748-.917844 6.842104-.620361 10.179716.921471zm-78.281511-.943238c3.482726.910587 7.005357 1.679689 10.553384 2.30005.682034.123346 1.168164.562315 1.306022 1.233465.199531.682034-.054418 1.291511-.6385 1.694201-3.109058 2.14768-6.355974 4.190154-9.740748 6.123792-3.294077 1.871965-6.972706 2.267399-10.832727 1.088352-3.820115-1.160909-7.5894393-2.477814-11.3079743-3.947089-.7183122-.282972-1.128258-.881565-1.2080704-1.54546-.0145114-.700172.3990623-1.276999 1.0339341-1.552715 3.6895123-1.353184 7.2556776-2.83697 10.7021256-4.462242 3.286822-1.549087 6.617178-1.84657 10.132554-.932354zm102.577149-9.962046c3.678629.932354 7.447954 1.71234 11.300719 2.347212.72194.11609 1.197187.631244 1.316905 1.316905.094324.642128-.232181 1.335045-.892448 1.76313-3.344868 2.133169-6.76592 4.139364-10.288552 6.007701-3.548026 1.890104-7.281073 2.245633-10.876261 1.030307-3.696768-1.237093-7.277445-2.6193-10.742032-4.135737-.649383-.275716-.954121-.848914-.954121-1.534576.007255-.689289.45348-1.218954 1.055701-1.454763 3.016911-1.165625 5.998559-2.445853 8.934366-3.827461l.97689-.464273c3.268683-1.581738 6.602667-1.919127 10.168833-1.048445zm-127.1413026.893606.2648877.125816c3.246916 1.556343 6.5518773 3.003851 9.9076289 4.291734.645755.257577 1.041189.765474 1.096204 1.476531.006659.685661-.356125 1.237093-1.005508 1.523692-3.1758712 1.390067-6.4492906 2.658198-9.8146697 3.809983l-.9201065.311242c-3.5480266 1.233465-7.281073.881565-10.8399831-1.008539-3.5226317-1.875593-6.9618231-3.899927-10.3248299-6.047608-.653011-.417201-.946866-1.084724-.8924484-1.748618.1269744-.68929.6457553-1.179048 1.3676953-1.295139 3.8527651-.627616 7.6257177-1.414857 11.3007186-2.35084 3.4309553-.864798 6.6798879-.565338 9.8604111.911746zm103.4877926-11.033416c.438968.507897.602221 1.139141.377295 1.759501-1.211698 3.333985-2.593905 6.671596-4.161132 9.97293-1.523692 3.217893-4.12848 5.376457-7.585811 6.276162-3.417424.896076-6.860244 1.647038-10.332086 2.260143-.682033.108835-1.324161-.174136-1.665178-.765474-.333761-.551431-.348272-1.244349.036279-1.810291 2.089635-3.02199 4.008762-6.09477 5.761008-9.196572 1.705084-3.029246 4.008762-4.941117 7.048891-5.862588 3.011107-.910588 5.985935-1.955406 8.917229-3.105431.526036-.21767 1.150025-.039906 1.603505.47162zm-88.08756-.482503c2.931294 1.150025 5.902494 2.19847 8.9136 3.109058 2.960126.904287 5.177339 2.726896 6.865968 5.621879l.135762.237081c1.752246 3.10543 3.671373 6.170954 5.75738 9.192944.388179.569571.428085 1.273372.036278 1.817548-.341016.591337-.93961.881564-1.621644.769101-3.486353-.616732-6.950939-1.374951-10.371991-2.271027-3.387596-.876163-5.949714-2.973201-7.44557-6.057112l-.100336-.211794c-1.574482-3.308589-2.9712-6.653456-4.197409-9.987441-.188648-.605849-.061674-1.25886.384551-1.759501.48613-.497014 1.077468-.685662 1.643411-.460736zm108.320018-10.157949c.529664.413573.812636.994028.707428 1.654294-.547803 3.504493-1.269743 7.041636-2.169447 10.582407-.863426 3.460958-3.011107 6.080258-6.236256 7.636601-3.185242 1.52732-6.439414 2.945805-9.748003 4.219177-.58771.228554-1.284255.061673-1.730479-.449852-.446225-.467992-.58771-1.157281-.311994-1.788525 1.346835-3.076105 2.535154-6.179646 3.5929-9.279884l.285259-.845415c1.09198-3.301333 2.974828-5.62315 5.782776-7.114192 2.768041-1.472903 5.474409-3.058268 8.119104-4.748841.507897-.330134 1.168164-.2866 1.708712.13423zm-128.4908035-.166881c2.6555782 1.697829 5.3764575 3.286822 8.1626379 4.770608 2.7970639 1.49467 4.6907959 3.816487 5.7392413 7.096054 1.1173743 3.381146 2.4016293 6.769547 3.8709043 10.132554.272088.631244.174136 1.327789-.264832 1.799408-.497014.497014-1.14277.685662-1.784897.431713-3.3013336-1.269744-6.5482495-2.688229-9.7407479-4.226432-3.1534789-1.518211-5.2733767-4.059597-6.1324749-7.379985l-.0566185-.227594c-.8997041-3.540771-1.6143884-7.081542-2.1694478-10.589662-.112463-.653011.1342301-1.25886.6747781-1.67969.5731986-.391806 1.1935591-.460735 1.7014565-.126974zm153.6498675 5.575989c3.791091.221298 7.640229.26846 11.551039.155997.72194-.021767 1.287883.391806 1.534576 1.04119.221298.616732.021767 1.356811-.53692 1.897359-2.876876 2.731763-5.851704 5.354691-8.935368 7.8579-3.130825 2.535859-6.71513 3.59156-10.480827 3.090919-3.852765-.507898-7.643857-1.171792-11.329741-1.988056-.692917-.155997-1.110119-.653011-1.229837-1.335045-.123347-.678406.195903-1.273371.750962-1.6289 2.739382-1.720684 5.419992-3.553033 8.031252-5.467955l.867837-.641326c2.9059-2.176703 6.112909-3.152592 9.777027-2.982083zm-170.9768851 2.764691.2362679.173858c2.8877599 2.147681 5.8480765 4.201038 8.8990892 6.116537.5877099.377295.877937.950494.7908689 1.657922-.1197187.674778-.5804543 1.14277-1.2697437 1.298767-3.388704.751567-6.8505694 1.375102-10.3716244 1.862221l-.9617448.129462c-3.7149072.526037-7.3100957-.533292-10.4336651-3.065524-3.1054302-2.514092-6.0875139-5.155159-8.9825295-7.897805-.5514315-.540548-.7146843-1.240721-.5369201-1.89736.2503209-.649383.85617-1.026679 1.5853656-1.008539 3.9071827.119718 7.7563199.072556 11.5437839-.148742 3.5297893-.194138 6.6577551.724466 9.5008521 2.779203zm163.6559051-22.503764c.602222.301111.994028.819892 1.015795 1.483787.123347 3.548026.090696 7.161354-.112463 10.81096-.192275 3.55891-1.803036 6.537366-4.658145 8.685047-2.847854 2.111402-5.761008 4.12848-8.764859 6.011329-.529665.341017-1.251605.308366-1.792153-.108835-.507897-.377296-.794496-1.015795-.638499-1.686945.728288-3.288939 1.301109-6.559587 1.740817-9.806356l.116636-.884886c.427417-3.355751 1.776596-5.951392 4.131261-7.934275l.193123-.159434c2.43428-1.977172 4.796004-4.052296 7.070659-6.214488.438968-.424457 1.084724-.507898 1.697828-.195904zm-164.1633442.15237c2.2855386 2.169447 4.6508896 4.26271 7.099681 6.243511 2.4055437 1.9534 3.8067789 4.512137 4.2539392 7.803469l.0341665.268472c.4462242 3.537144 1.059329 7.106937 1.8501979 10.683986.1523693.674779-.0834403 1.342301-.6058491 1.723224-.5804542.391807-1.2552323.45348-1.8284309.079812-3.0038507-1.886476-5.9170054-3.907182-8.7576034-6.018584-2.7952097-2.096408-4.3903553-4.997482-4.605697-8.418353l-.0125421-.234044c-.203159-3.653234-.2358096-7.266561-.1160909-10.81096.0217671-.667522.3772953-1.211698.9867723-1.523692.6384996-.275716 1.2552323-.221299 1.7014565.203159zm202.9812222-.954122c.326506.558687.272088 1.331417-.177764 1.959033-2.310933 3.236032-4.719818 6.381369-7.277445 9.421498-2.579394 3.080035-5.90975 4.810515-9.700842 5.031813-3.874532.235809-7.716413.304738-11.492994.199531-.707428-.018139-1.211698-.428085-1.465647-1.066585-.253948-.642127-.043534-1.302394.424458-1.748618 2.622927-2.452419 5.144275-5.031813 7.567672-7.694647 2.445163-2.684601 5.412736-4.251827 9.040575-4.785119 3.754813-.50427 7.545905-1.197187 11.351508-2.053357.696545-.112463 1.353184.148741 1.730479.736451zm-241.7446824-.750963c3.8164866.85617 7.6003228 1.54546 11.3623918 2.053357 3.5988164.493386 6.5518774 2.056985 8.993413 4.745214 2.4197687 2.666461 4.9483725 5.242227 7.5676723 7.701902.5078975.478875.6784059 1.102863.4643634 1.781269-.2466931.6385-.7944968 1.015795-1.5019254 1.037562-3.436553.089047-6.9210774.037178-10.439945-.150156l-1.0566769-.060259c-3.7439299-.188647-7.0706583-1.908243-9.6609354-4.991906-2.5648822-3.054641-4.9955344-6.214489-7.3137235-9.465032-.4462242-.631244-.4643634-1.353184-.1668806-1.962661.3736674-.594966 1.037562-.845287 1.7522463-.68929zm217.7102494-15.918957c.656638.177764 1.110118.656638 1.287882 1.269743.794497 3.453703 1.447508 7.008985 1.94815 10.633196.489758 3.52626-.522409 6.758665-2.924038 9.406987-2.390746 2.622928-4.86856 5.158787-7.451582 7.5713-.464363.442597-1.164536.547804-1.781269.239438-.580454-.268461-.979516-.845287-.957749-1.538204.089789-3.365426.033255-6.688173-.152835-9.957066l-.053952-.890173c-.224926-3.468214.660267-6.326951 2.70274-8.768487 2.017079-2.401629 3.932578-4.897583 5.757381-7.451581.348272-.50427.979516-.700173 1.625272-.515153zm-193.7991623.464363c1.8284309 2.564882 3.7548134 5.071719 5.7827754 7.484232 1.9872714 2.375548 2.8755382 5.149486 2.6948743 8.4655l-.017529.277592c-.2394374 3.555282-.3119942 7.175866-.2249261 10.847239.0181392.685661-.3337611 1.298766-.9178432 1.567226-.6421275.275716-1.3096499.206787-1.8139196-.26846-2.5866492-2.423396-5.0608354-4.962884-7.4479535-7.574928-2.3435016-2.591679-3.3599805-5.741192-2.9207662-9.140408l.0330063-.237556c.4933861-3.620583 1.150025-7.175865 1.9481496-10.629568.1451135-.649383.6094769-1.121002 1.2588601-1.306022.6784059-.148742 1.2697437.014511 1.6252719.515153zm9.6199193-24.670943c11.2889214 22.07241 30.985368 39.849471 56.429078 48.116634.573005.18618.886587.801621.700407 1.374626-.18618.573004-.801621.886587-1.374626.700406-25.7187612-8.356532-45.6943887-26.216129-57.3025276-48.428207.5334192-.562816 1.0490128-1.150999 1.5476686-1.763459zm184.317735-27.611252c-.803021 4.699174-1.955252 9.398013-3.471942 14.065904-9.924614 30.544821-33.664908 53.904724-63.616221 63.704867-.572619.187362-1.188706-.12495-1.376068-.697569s.12495-1.188706.697569-1.376068c29.295928-9.585699 52.512727-32.430495 62.219688-62.305449 1.35402-4.167244 2.41104-8.359708 3.182731-12.554484l.426462-.139642.397509-.133116c.63818-.216371 1.154176-.405164 1.540272-.564443zm37.805076 43.615287c.438969.489759.529665 1.251605.217671 1.959034-1.657923 3.635094-3.44282 7.204888-5.376458 10.694869-1.926382 3.47547-4.861304 5.800915-8.547189 6.747781-3.754813.975888-7.509627 1.770385-11.242673 2.390746-.659885.113417-1.241625-.124814-1.587905-.674594l-.055506-.094508c-.37004-.58771-.286599-1.266116.090696-1.795781 1.900262-2.621839 3.697675-5.323019 5.402817-8.079738l.564978-.92093c1.824901-3.01797 4.350418-5.094917 7.650064-6.277624l.276764-.096489c3.606073-1.233466 7.190377-2.648323 10.785566-4.240944.642127-.246693 1.353184-.119719 1.821175.388178zm-269.4613729-.40269c3.5734215 1.574482 7.1613543 2.9712 10.752915 4.190154 3.3497701 1.143652 5.9096305 3.166508 7.7731453 6.135398l.153683.249599c1.8755928 3.065524 3.8600207 6.080258 5.9641674 8.997041.4099458.565943.4571077 1.211698.1197187 1.839314-.3664118.580455-.9722609.841659-1.647039.769102-3.3969765-.580454-6.8119424-1.307821-10.2448975-2.173923l-1.0304262-.263985c-3.6496061-.899704-6.5845279-3.221521-8.5326775-6.74778-1.9336382-3.489981-3.718535-7.067031-5.3655739-10.702125-.3228777-.703801-.203159-1.418485.2067868-1.951778.4752469-.515153 1.1790477-.634872 1.8501979-.341017zm242.5789219-11.357173.112627.005665c.663894.058045 1.204442.435341 1.498297 1.004911 1.31358 2.982991 2.538757 6.060482 3.633615 9.226884l.295335.865765c1.17542 3.330356.801752 6.69699-1.048445 9.751631-1.842943 3.029246-3.791092 5.99319-5.873472 8.859183-.362784.518781-1.04119.758218-1.697829.569571-.649383-.116091-1.12463-.649384-1.229837-1.320534-.616733-3.624211-1.374951-7.16861-2.281911-10.615057-.857739-3.272115-.57526-6.173315.844094-8.857314l.120911-.223167c1.523693-2.757158 2.931294-5.575989 4.237316-8.441981.232988-.527649.757211-.83849 1.389299-.825557zm-213.620688 6.007833c.5516494 1.077455 1.1212047 2.146189 1.7078896 3.205287 1.5382038 2.782553 1.8647093 5.757381.9577495 9.084109-.8997041 3.457331-1.6579224 7.012613-2.252888 10.64408-.1414858.642128-.6131048 1.171792-1.2262096 1.327789-.6929173.148742-1.331417-.054417-1.7341071-.609477-2.0787518-2.86962-4.034157-5.829937-5.8662157-8.855555-1.808148-2.992307-2.2061178-6.279124-1.1228021-9.532001l.0779844-.226886c.4622846-1.355561.9468775-2.696063 1.4520291-4.019977l.3827434-.989193.4569121.054293.1945332.021448.4270386.041308.4430983.035936.4142144.027289.3079879.016195c.5510961.026569 1.107487.037312 1.6689445.032235l.5268036-.00942.1652341-.004788.5137644-.020721.273157-.014523.4107279-.026326.4637888-.036222.4083998-.037525.4204744-.044101zm249.384089-21.347927c.515153.399062.765474 1.131886.576827 1.882848-.90696 3.889044-1.991684 7.734553-3.203382 11.536528-1.240721 3.834626-3.656862 6.63169-7.092426 8.267846-3.50812 1.676061-7.03438 3.177987-10.578778 4.509404-.628953.233709-1.235114.119025-1.682758-.36256l-.073116-.083665c-.471619-.500641-.533293-1.186303-.261205-1.774013 1.516437-3.265055 2.880504-6.602667 4.128481-9.976557 1.221307-3.318002 3.294343-5.839226 6.302646-7.637186l.252859-.148157c3.286822-1.904615 6.559133-3.986995 9.769771-6.243511.58771-.359156 1.298766-.373667 1.861081.029023zm-287.18336662-.043534c2.57564415 1.796825 5.18646812 3.485766 7.82304322 5.057393l.3003631.520155.2676034.45006.2689894.440268.2875917.457925.3015217.466508.2897742.435756.3124859.456697.2975951.422704.2962739.409439.2919753.392782.3464808.452841.1330059.170115.3117341.390879.2482403.303602.2614052.312572c.4960277.586298 1.0050358 1.15005 1.5266915 1.690749l.1248553.128726c.2665478.273347.5363892.540734.809465.802076l.4799107.450003.1509191.13774.1995249.179391c.2051635.182888.4120535.362489.6206453.538769l.4284195.355435.37345.299232.2965732.230781c1.0414039 2.700346 2.1624549 5.375316 3.379824 8.005651.2865992.627616.2104146 1.273371-.2358096 1.824803-.4752469.493386-1.1173744.642127-1.7631298.442596-3.2490321-1.233767-6.4919675-2.610809-9.7204231-4.139509l-.8801226-.420685c-3.4065408-1.585365-5.84082082-4.433219-7.08516961-8.271473-1.22258176-3.805603-2.29279428-7.647484-3.20338188-11.536528-.17184501-.711438.05354329-1.361012.51576351-1.760559l.07920209-.064244c.55143154-.471619 1.26611583-.45348 1.86470927-.03265zm260.31196262-5.634034c1.853496 2.65162 3.620044 5.414175 5.294192 8.287663l.499467.865375c1.799408 3.036501 2.078752 6.414019.852542 9.76977-1.226209 3.319473-2.572137 6.602667-4.066807 9.816933-.257577.580454-.874309.943238-1.556343.88882-.656639.007256-1.222582-.424457-1.462019-1.070212-1.284255-3.435564-2.713624-6.762292-4.266339-9.965674-1.475452-3.049738-1.776343-5.910585-.885955-8.843182l.076947-.244555c.95775-3.003851 1.806664-6.040352 2.535859-9.105876.134231-.58771.623989-1.015795 1.306023-1.09198.67115-.068929 1.273371.192276 1.672433.692918zm-240.0783618 23.713234.2224632.126227.5064892.277305.2358251.124417.2712873.139497.3350088.16698.3896814.187009.0471881.022124c.4952181.231606.9970998.447884 1.5054277.648567l.4934589.189157.4172281.151219.3741025.12892.4774434.155531.368972.11339.4379121.127005c-.2983466.752827-.5896689 1.512098-.8740534 2.276883-.2612044.598594-.8198916 1.023051-1.4583913 1.062957-.7074286.014511-1.2951385-.308366-1.57811-.928727-.5964167-1.285706-1.1696153-2.582441-1.7212209-3.888115zm270.4542588-46.307416c.580454.290227.954121.965005.928726 1.737735-.155997 3.976112-.460735 7.955851-.943238 11.917451-.464363 3.997879-2.310933 7.204889-5.343807 9.46866-3.130825 2.329073-6.305184 4.480381-9.530333 6.457554-.563651.357437-1.182655.363226-1.712033-.022735l-.087375-.067961c-.562315-.399063-.750963-1.066585-.602221-1.694201.760758-3.147513 1.421605-6.324412 1.958739-9.520117l.17443-1.065917c.55105-3.489982 2.099529-6.364308 4.715765-8.703353l.214468-.188481c2.869621-2.506837 5.670313-5.169671 8.387564-7.992129.507898-.467992 1.208071-.613105 1.839315-.326506zm-18.048668 10.489176c.849933 1.951355 1.102626 4.109638.73662 6.380276-.547804 3.493609-1.251605 6.972706-2.089636 10.415526-.148741.616732-.685661 1.091979-1.353184 1.168164-.653011.137858-1.280627-.181392-1.643411-.761846-1.933638-3.130826-3.976111-6.112909-6.116536-8.964391-.635162-.845779-1.153681-1.695915-1.557494-2.558152l.462009-.052423.398779-.049984.369263-.050109c.23887-.033571.475548-.071246.710047-.112983.257415-.045819.512092-.096509.764158-.152037l.254119-.057826.408236-.100741.309664-.083012.322953-.092791.322483-.099136.432713-.14347.303874-.108102.449096-.171213.385422-.158158.269664-.117004.217592-.098313.282029-.132726.35581-.176191.408777-.214833.24114-.133143.351402-.202805.307308-.186136.369548-.23504.336809-.225232.212025-.14734.404643-.293495.264409-.200774.24898-.195772.243225-.197708.320199-.270316.264736-.232385.304515-.277606.288256-.273293.150286-.146664c.097149-.09575.193652-.192704.289472-.290816zm-276.16907901-10.177182c1.47119985 1.514355 2.96573403 2.983102 4.48073504 4.405668-.00352094.278634-.00535392.557101-.00548399.835353l.00127296.485161c.00323077.477943.01151328.955172.02492446 1.431459.03101962 1.100202.08935277 2.195369.17600019 3.282708l.07031108.814088c.04089149.439065.0864787.876823.13682292 1.312993.05480941.47488.11530732.94823.18153304 1.419451.03331357.237038.06808362.473835.10430297.710357l.07996465.507237.09184305.549685.06837535.389585.15884913.850786.10780778.540746.12715551.605796c.15975384.741331.33380054 1.478099.52192905 2.209295l.21598959.814392.13991441.502974c.19367495.683946.39983132 1.362455.61823842 2.034474l.2395303.719972.1702059.492175.2159614.603332.1953145.526861c-1.23855855-.847951-2.46915795-1.722535-3.68934458-2.624056l-.91314925-.681197c-3.03287345-2.209354-4.87944352-5.467153-5.35469044-9.472287-.47161907-3.961601-.77998539-7.937712-.93598247-11.913824-.0181392-.718312.35190039-1.39309.93598247-1.679689.62761616-.348273 1.32778909-.203159 1.83568656.326505zm292.29499201-28.717974c.631244.177764 1.121002.769102 1.240721 1.530948.602221 3.943461 1.048445 7.905062 1.338673 11.881173.286599 4.019646-.914216 7.509627-3.464587 10.303063-2.626555 2.873249-5.332923 5.586872-8.111848 8.148127-.49835.457107-1.107405.578846-1.694525.303523l-.097627-.049575c-.175847-.079838-.326356-.185014-.451371-.309175l.246083-.505897.167632-.356135.293781-.647917.165853-.37994.177845-.419424.121842-.294883.19519-.485719.192745-.496632c.197498-.517898.38808-1.045875.571878-1.583776l.225098-.674084.133516-.414984.171395-.550462c.088505-.289618.175193-.581804.260082-.876545l.18655-.662294.121288-.447043.143953-.548716c.080538-.312756.159148-.627937.235898-.945709.105608-.437258.207265-.879703.304995-1.326516l.143634-.673308.114767-.563433.155405-.803051.100619-.547287.133054-.760939.106914-.646003c.23534-1.458972.432757-2.937674.592939-4.410681l.104384-1.01269c.100815-1.034731.183233-2.063686.247511-3.078102l.030627-.505935.038709-.721841.011752-.244134c1.303006-1.802075 2.570666-3.653283 3.810518-5.552853.40269-.558688 1.055701-.834403 1.734107-.671151zm-290.46656113.660267c2.13334373 3.243259 4.35617658 6.354074 6.68627693 9.318223l-.079321.230406c-.2072734.607269-.40728 1.220827-.5998098 1.840053l-.1777332.580287-.1970481.664688-.1755767.612783-.13026337.468204-.11800255.435-.09836992.370463c-.20058696.764065-.38987856 1.53451-.56753285 2.310563l-.14603128.651102-.13875634.645106-.07301824.350851-.13166062.654895-.08710251.450525-.21215606 1.164433-.11838399.698876-.07832159.485568c-.13849713.876689-.26190684 1.757412-.36973345 2.640682l-.11110788.961608-.07026507.67286-.07416765.784944c-1.02460765-1.040597-2.03762448-2.10436-3.03912118-3.190741l-.7489636-.819019c-2.55399868-2.739018-3.74755773-6.287045-3.45733061-10.299435.28297145-3.976111.74007917-7.941339 1.33867261-11.8848.11246301-.711057.60222128-1.302395 1.23346528-1.476531.69291725-.21767 1.34230044.061673 1.74136274.678406zm7.17949343-27.2341877c1.4692749 3.6242117 3.065524 7.1323317 4.7996311 10.5062217 1.6361554 3.283195 2.0497291 6.559133 1.2443488 10.096276-.2938001 1.279751-.5687717 2.564812-.8249149 3.853951-.3091615.486069-.612483.983443-.9097349 1.49147l-.3549543.617418-.2553214.455991-.3097146.569089-.3170719.600148-.2889477.563341-.3442612.692659-.2765727.574391-.2589416.552925-.191887.419629c-.166827.368585-.3306731.740513-.4916051 1.115884l-.0736554-.086458c-2.0551708-2.800088-4.01888988-5.725159-5.89674587-8.769625l-.5100179-.833265c-1.98442796-3.181615-2.4705584-6.896522-1.42211291-10.789194 1.05207332-3.856393 2.25651589-7.665624 3.60969985-11.420437.24306522-.6747781.83803082-1.1572807 1.49104183-1.2080704.7183121-.0834403 1.3060221.315622 1.5817378.9976557zm275.9588327-.9758887c.67115.1015795 1.251605.5369202 1.512809 1.262488 1.345928 3.7584414 2.550371 7.5604164 3.591561 11.4131814 1.055701 3.896299.555059 7.556789-1.422113 10.800077-.624357 1.014718-1.25651 2.016892-1.897704 3.006213-.017807-.323243-.038155-.640192-.061037-.950366-.035545-.481374-.077169-.946655-.124889-1.393878l-.050962-.451288c-.027183-.22773-.05606-.450489-.086605-.667831-.022603-.160826-.047063-.321463-.073355-.481883-.043698-.266631-.092457-.532671-.146148-.797975l-.102934-.481117-.076401-.327354-.104018-.414043-.078296-.291906c-.052899-.192174-.108299-.383735-.166172-.574704-.043589-.143834-.088593-.287371-.134979-.430549l-.104671-.315583-.115931-.333552-.161232-.439775-.135829-.351642-.090551-.225969-.137591-.331715-.159344-.368343-.156489-.346988-.143552-.306731-.148909-.307548-.135925-.272051-.166824-.323483-.19098-.35739-.196603-.354729-.231905-.402756-.327352-.542507-.264153-.417769-.181444-.27751-.247106-.366455-.244451-.350341-.111467-.155959c-.099616-.138346-.200336-.275508-.302291-.411675l-.16864-.22285-.170755-.220928c-.059552-.076245-.119441-.152089-.179713-.227593l-.284836-.350847-.357779-.424481-.180598-.207772-.285795-.320331-.288566-.31336c1.318205-2.716923 2.552112-5.512427 3.707159-8.3800323.297483-.6239883.888821-1.0266785 1.585366-.9904001zm-250.2341568 10.1323734.0910268.079994c.5224088.431712.7183121 1.055701.5224088 1.588993-.3123409.865026-.6138666 1.733141-.905028 2.604527l-.2173619.083287-.3546626.141417-.2627985.109487-.3729669.161854-.3719244.16917-.3669363.174547-.1217572.059874-.1337324-.075136-.2007833-.106577c-1.010682-.519609-2.1265136-.840763-3.5121554-.996883l-.2807747-.029033-1.0214247-.096418-.9573757.368832-.4269359.171585-.1815352.077282-.3053068.135825-.1446335.066918-.2161502.103103-.1912417.094331-.2576661.131728-.3932107.211351-.1786541.100176-.2545046.147219-.1624202.096738-.205618.125596c-.1678905.103984-.3350513.211033-.5014688.321099l-.337178.22782-.3604492.254279-.1760127.128239-.2718803.203386-.3643727.282765-.1547131.123627-.2437403.199121-.1537199.128339-.2115387.180132-.1643349.142771-.2754322.244903-.3374872.309779c-.1953535.182437-.3892704.368976-.5818312.559623l-.2932549.294576-.2181516.224682-.4043223.429152-.3210135.352719-.4056315.461227-.1244458.145041c.9458938-2.980405 2.9096677-5.248147 5.7670441-6.704593 3.2505437-1.657922 6.5409938-3.145336 9.8350716-4.458614.5838687-.232182 1.1902325-.155859 1.6829865.25014zm142.0856718-53.4451939c27.615301 8.9727552 48.609224 28.901792 59.732977 53.4109999-.153525 1.524919-.294888 3.039763-.424596 4.540231l-.00457-.010608c-10.400249-25.6232794-31.619354-46.6512981-59.97803-55.8655905-49.101889-15.954171-101.7050838 9.3255937-120.3378447 56.7464895-.6417629-.329017-1.3048581-.628497-1.9872952-.896975 19.081982-48.4245556 72.8282279-74.2261356 122.9993589-57.9245469zm-132.0380891 32.8885636.0744191.0957992c.4317128.5187809.4933861 1.1681641.203159 1.6615502-1.6143884 2.7027401-3.1308251 5.4671535-4.5202875 8.2932401-1.4112294 2.8514818-3.6713731 4.8032588-6.9219169 5.9569118-3.3484954 1.233465-6.7042466 2.633811-10.0273471 4.215549-.6058491.250321-1.3096499.16688-1.7921525-.246693-.5332924-.442597-.7146843-1.128258-.4897583-1.774013 1.1790477-3.34124 2.4959533-6.6280624 3.9325775-9.8677227 1.4402521-3.2251489 3.9978787-5.4453864 7.4189309-6.4212751 3.5190039-.9976557 7.0307521-1.824803 10.5207332-2.4850697.6145986-.1195053 1.1938478.0791346 1.6016426.5717232zm-24.9443633-15.2190062.1027838.0089524c.7146843.0544176 1.2189539.5623151 1.353184 1.2769994.7473348 3.8346258 1.643411 7.5858114 2.6882287 11.2317896.9758887 3.5371431.7364513 6.8783829-.7255678 10.1506937-1.465647 3.2795665-2.7970639 6.6316894-3.9942508 10.0273474-.2358095.656639-.7509627 1.110118-1.4402521 1.142769-.6856616.032651-1.2479766-.311994-1.5672265-.90696-1.479856-3.149266-2.8408247-6.3930331-4.0940835-9.7452719l-.3391358-.9169468c-1.3350448-3.5008647-1.1064909-7.2484224.6856616-10.8617501 1.7667576-3.5806771 3.6858845-7.0815418 5.7319857-10.5062219.3471269-.5773992.9807827-.9333897 1.5986727-.9014008zm254.3489994.9630741c2.04973 3.4319357 3.961601 6.9364282 5.72473 10.5171054 1.788525 3.6133277 1.99894 7.2992121.68929 10.8617501-1.236763 3.3211217-2.572468 6.5403039-4.020741 9.6711759l-.060335.129811c-.125738-.096611-.252214-.191881-.379402-.285782l-.302736-.219952-.363563-.254908-.384872-.259118-.348241-.225159-.305578-.190444-.327085-.19659-.40399-.232621-.380502-.208968-.389664-.203975-.289813-.145209-.459658-.219083-.278941-.126298c-.854035-2.2388673-1.770779-4.4564762-2.747083-6.648329-1.436625-3.2297572-1.702122-6.4801208-.796493-9.8647041l.07818-.2823617c1.026679-3.6641174 1.930011-7.4261865 2.659206-11.2789516.170509-.674778.671151-1.171792 1.367696-1.2769993.67115-.0290227 1.331417.2793436 1.719595.9396103zm-12.997972 16.7156948c2.690437 1.1114433 4.742822 3.141069 5.98536 5.9329044.707077 1.5829301 1.380225 3.1806503 2.020721 4.7914562l-.232789-.062048-.313625-.07819-.324396-.074548-.39452-.081826-.270748-.050547-.17312-.029953-.341241-.053439-.305641-.041632-.307986-.035973-.331853-.032001-.337721-.02532-.238228-.0134252-.259008-.0104261-.323762-.0068594-.244737-.0006018-.324261.0053426-.141606.0045443-.260036.0118666-.32572.021363-.065512.005176c-.175332.014245-.350793.031692-.526115.05237l-.318615.041171-.217276.032382-.323141.055093c-.857287.157322-1.679257.397793-2.46736.718756l-.293954.12413-.1104.049161.368584-2.4445561.226078-1.4695713.354942-2.2690961.74835-4.6509811zm-204.0665212-21.5951383c.6675224 0 1.2008147.3700395 1.5273202.9650052.3265055.5985934.2612044 1.2516044-.1160908 1.6688059-2.1114024 2.3544676-4.1284809 4.7851197-6.0367242 7.2919565-1.9300104 2.524976-4.5239153 4.0160178-7.9594789 4.5638215-3.5262595.5514316-7.0706583 1.2769994-10.6295684 2.1730756-.6457553.1306022-1.3096499-.0870681-1.7087122-.5949656-.4389685-.5260367-.4897582-1.2298374-.1378579-1.824803 1.7885247-3.0328735 3.7040237-6.0040737 5.7211022-8.8918335 2.0642404-2.9276662 4.9882787-4.6254948 8.5471888-4.9120941 3.6423504-.3192498 7.2411668-.4571077 10.7928212-.4389685zm200.0535562-18.2008685c2.662834 2.9639445 5.205949 6.0439798 7.62209 9.2110833 2.390827 3.1321956 3.349207 6.6667249 2.783575 10.2848038l-.040929.246813c-.616732 3.8346258-1.400346 7.5966949-2.329072 11.2608124-.170509.6856615-.660267 1.1355136-1.338673 1.2407209-.711056.0471619-1.291511-.2503209-1.632528-.8489143-1.652117-2.7883571-3.39533-5.5267589-5.229638-8.1940477l-.61481-.8864335c-2.08238-2.9675723-2.953061-6.2072326-2.644695-9.8205603.31925-3.7838361.497014-7.6293455.497014-11.5365281 0-.7328235.391807-1.3205334 1.055701-1.556343.660267-.1559971 1.36044.0253949 1.871965.5985935zm-220.0719721-.6058492c.6566389.2285539 1.0883517.7763576 1.0883517 1.5091811 0 3.9071826.1705085 7.7563199.5006418 11.5365282.2793436 3.6568617-.5985934 6.8928941-2.680973 9.8640943-1.8545514 2.6348995-3.6150691 5.3432628-5.2762638 8.1092216l-.5500457.9240977c-.3446448.6058491-.946866.9504938-1.6288998.8452865-.6856616-.1052074-1.1645363-.5478037-1.3676953-1.1935591-.9287268-3.6641174-1.7087122-7.4225587-2.3290727-11.2608124-.6131048-3.7475577.3337612-7.3681411 2.7752969-10.5678951 2.4233965-3.1743592 4.9628838-6.243511 7.6293455-9.2147112.4861305-.5332924 1.2225818-.7545905 1.8393144-.5514316zm208.9961801 19.2819646c3.529887.2648322 6.453925 1.9590331 8.518166 4.8866992 1.588858 2.2750858 3.11514 4.6015739 4.56832 6.9742018l-.204114-.1426394-.25691-.1702194-.225592-.1414782-.169459-.1019837c-1.161029-.6869229-2.595678-1.2615725-4.166274-1.7004269-3.072053-.8583903-6.373966-1.1438901-9.01343-.6130968l-.270649.0578315-.352574.0852882c-.368413.0959914-.694894.2161465-.987352.3595186-.044693.0219117-.088453.044292-.131451.0672078-.433199.2308694-.789107.5160859-1.096314.8522252-.083224.0910568-.162956.1859564-.239676.2845327-.071123.0915611-.1369.182208-.200702.2757135-.076025.1114159-.149294.2269685-.220434.3465036-.62284-.5331409-1.193285-1.1416603-1.715254-1.8258229-1.911871-2.5104647-3.925322-4.9483725-6.029468-7.2919565-.417202-.4571077-.446225-1.0738404-.148742-1.7087122.326506-.5913378.885193-.9359825 1.549087-.9359825 3.551655-.0181392 7.157727.1306022 10.792822.4425964zm-8.050175-14.4750778c2.550371 2.4633027 5.00279 5.0209292 7.350002 7.6765074.453482.5151532.500641 1.1899312.210414 1.8211752-.290227.5731986-.914215.9105876-1.592621.8743092-3.664117-.2067868-7.291957-.2358095-10.854494-.1160908-3.446448.1523692-6.27979-.8198917-8.645141-2.9349218-2.361723-2.1041467-4.796003-4.1067138-7.313723-6.0077015-.489759-.3736674-.631244-.9722608-.467992-1.6434111.210415-.6493832.696545-1.0847238 1.345929-1.2153261 3.486353-.696545 7.052519-1.2334652 10.687613-1.6288997 3.508121-.406318 6.707875.6929173 9.280013 3.1743592zm-174.3757119-3.2070097c3.6350947.3881787 7.2048883.9323546 10.683986 1.6288997.653011.1306022 1.1064909.5985934 1.306022 1.2479766.203159.6384997.0217671 1.2697437-.428085 1.6180162-2.2411983 1.6897669-4.4164685 3.4569276-6.5232626 5.2989342l-.786833.6942559c-2.3762346 2.1222859-5.2132047 3.0945468-8.6959302 2.9712002-3.5552823-.1269743-7.1758657-.0943238-10.8472388.112463-.6784059.0399063-1.2697436-.3410168-1.5635986-.9069597-.3228777-.6022213-.2358095-1.3132778.2176703-1.8248031 2.3399562-2.6483225 4.7742362-5.1878098 7.3173514-7.6366012 2.5757657-2.4850697 5.7755198-3.5843049 9.3199185-3.2033818zm172.4057949-20.4102225c3.174359 2.412513 6.268906 4.9374889 9.240106 7.5930671 2.937099 2.6284903 4.549271 5.9090386 4.683908 9.5635567l.006888.2497479c.119719 3.8854157.072557 7.7164137-.141486 11.496622-.036278.7110564-.431713 1.2407209-1.070212 1.4656469-.692917.1922755-1.306022.0072557-1.770386-.5151531-2.379862-2.6954844-4.875815-5.3002728-7.46972-7.7962261-2.534389-2.4567334-4.007551-5.3668062-4.432854-8.8505149l-.033016-.2916395c-.395435-3.7693248-.968633-7.5858115-1.705084-11.4131816-.141486-.7255679.13423-1.3822067.736451-1.7304793.616733-.2829714 1.338672-.2358095 1.955405.2285539zm-177.7967637-.2321817c.6058491.3482725.9250989.9758887.7836132 1.6978287-.743707 3.830998-1.3096499 7.6366012-1.7087122 11.4059259-.4244571 3.6496061-1.9009876 6.6607125-4.5094039 9.1820607-2.5793936 2.4814419-5.0680912 5.0680911-7.4406979 7.752692-.4607356.5224088-1.1101187.7473348-1.7631298.518781-.6457553-.2321817-1.0702125-.7255678-1.1064909-1.4329964-.2140425-3.7765805-.2648322-7.6075785-.1451135-11.496622.112463-3.7947196 1.7304792-7.1649821 4.7343299-9.8423273 2.9820837-2.6555782 6.0657469-5.184182 9.2473617-7.5894393.5659429-.4353407 1.331417-.5151531 1.9082434-.1959033zm159.8208217 8.0066408c2.9712 1.9263825 5.866215 3.9761116 8.681418 6.1346758.544176.4135736.72194 1.0629568.558688 1.7449906-.18502.6131048-.725568 1.0665847-1.403974 1.1609085-3.638723.5006418-7.197633 1.1463971-10.669475 1.9517774-3.359379.8053802-6.319695.3954344-9.051458-1.2225818-2.709996-1.6180162-5.488921-3.1126859-8.315007-4.5021482-.544176-.2684601-.809008-.8271473-.77273-1.5164368.079813-.6784059.475247-1.2044425 1.09198-1.4547634 3.006269-1.2437442 6.10399-2.3625042 9.295957-3.3674576l.872876-.271265c3.355751-1.0774682 6.707874-.6022213 9.711725 1.3423005zm-134.0413975-1.3676954c3.493609 1.0738404 6.8820107 2.2891665 10.1724607 3.6459783.6167327.246693.9650052.7944967 1.0411898 1.4729026.0761847.6675224-.2212981 1.2479767-.7291956 1.4946697-2.8369701 1.3822067-5.5977557 2.8841321-8.3186349 4.4948926-2.7317628 1.6216441-5.6993352 2.0315899-9.0913647 1.2516045-3.471842-.8053803-7.0234964-1.4511356-10.6658468-1.9590331-.6820337-.0870681-1.1899312-.5768264-1.3640675-1.1899312-.2067868-.653011.0108835-1.3241613.5659429-1.7449906 2.7898082-2.1476807 5.6739403-4.1865263 8.6306291-6.1020253 3.0038507-1.9445217 6.355974-2.4233965 9.758887-1.3640675zm127.5947275-21.4441566c3.584305 1.7486185 7.092425 3.6568618 10.513477 5.6884517 3.39469 2.0112739 5.606658 4.9347353 6.442599 8.4956874l.054861.2437768c.859798 3.7947197 1.530948 7.574928 2.046101 11.31523.094324.7074286-.188647 1.2987664-.776357 1.6506668-.6385.3119941-1.277.2539487-1.828431-.1741363-2.862365-2.1948426-5.797287-4.2772222-8.815649-6.2362553-3.051013-1.9735445-5.078975-4.6472618-6.141932-8.115476-1.106491-3.627839-2.394373-7.2629337-3.86002-10.8835171-.272088-.6784059-.130603-1.374951.395434-1.8356866.551432-.3954344 1.269744-.4933861 1.969917-.1487414zm-128.9297722.1487414c.518781.4607356.7146843 1.1355137.4425963 1.8139196-1.4692748 3.6133277-2.7535298 7.2556781-3.8709042 10.8762614-1.0844375 3.4052043-3.0218493 6.029662-5.9428425 7.9838867l-.2389953.1569841c-3.0038507 1.9517775-5.9351446 4.0269014-8.7721148 6.2036048-.5514315.4244572-1.2370931.5224088-1.8320587.1705085-.5913378-.3519004-.9142154-.9178433-.8235195-1.6107606.5224089-3.7475577 1.1935591-7.5241382 2.0533569-11.3188578.834403-3.7003958 3.0691519-6.7151301 6.537366-8.7648591 3.4319357-2.0352178 6.9400561-3.9362054 10.5352446-5.6884517.6384997-.315622 1.4076015-.2394374 1.9118712.1777641zm112.7677492 10.9234234c3.286822 1.3205334 6.526482 2.7752969 9.693586 4.349779.616732.3083663.914215.9142155.885192 1.6143884-.058045.6348718-.511525 1.1863034-1.113746 1.4293686-3.486354 1.1790477-6.871127 2.4923254-10.13981 3.9470889-3.046209 1.390737-5.958476 1.5863064-8.867123.6134407l-.242381-.0837762c-2.963945-1.0557012-5.975051-1.9916837-9.01518-2.8043196-.561912-.1473306-.91996-.6020757-1.000795-1.2205955l-.011372-.1108214c-.090696-.6892895.192275-1.2842551.743707-1.647039 2.960316-1.9590331 6.058491-3.809231 9.276384-5.5324545 3.138081-1.690573 6.475693-1.8864763 9.791538-.5550594zm-88.744199.540548c3.221521 1.7268514 6.319696 3.5806772 9.280012 5.5360824.55506.3591561.790869.968633.740079 1.6434111-.054417.6747781-.457107 1.1899312-1.052073 1.3459283-2.689438.7223431-5.358811 1.5364122-7.992831 2.4447554l-.986071.3450528c-2.989339 1.0665847-5.978678.8924484-9.153037-.5151531-3.2505443-1.4583913-6.6208068-2.7861804-10.0962766-3.9652281-.6457553-.224926-1.0520733-.8017524-1.102863-1.4329964-.0761846-.6784059.2648322-1.3060221.834403-1.5926214 3.1707313-1.5817378 6.4031359-3.0292456 9.689958-4.349779 3.3158446-1.3314169 6.7042466-1.1536528 9.8386996.540548zm78.016679-21.67996612c3.852765 1.03393413 7.672879 2.21660966 11.434948 3.55528227 3.706846 1.32311325 6.446009 3.76304905 7.949577 7.10615455l.100598.229336c1.585366 3.5661658 3.003851 7.1468429 4.233688 10.7311479.181392.6493832.01814 1.284255-.500641 1.7486184-.562316.4317129-1.204443.4897583-1.828431.1741363-3.221521-1.6035049-6.511971-3.0800354-9.853211-4.418708-3.366635-1.3568118-5.811798-3.5697936-7.582184-6.784059-1.781269-3.3557511-3.751185-6.6679681-5.887983-9.94027897-.399062-.6131048-.391806-1.32053341.083441-1.86833711.409946-.50426962 1.099235-.73282348 1.850198-.53329234zm-75.230499.51878099c.428085.56231505.489759 1.25523231.090696 1.86833711-2.136797 3.27593862-4.103086 6.58815572-5.895238 9.93302332-1.759502 3.2178932-4.259083 5.4490142-7.6293457 6.805826-3.3448676 1.3386726-6.6316897 2.8152031-9.849583 4.418708-.5804542.2902271-1.2697436.2575766-1.7848968-.203159-.5151531-.4571077-.7255678-1.0738403-.4933861-1.7377349 1.2189539-3.584305 2.6047884-7.1577264 4.1828984-10.7202644 1.5309481-3.4754698 4.3026171-5.9895622 8.1009646-7.34274621 3.7548136-1.33141693 7.5459056-2.51409246 11.3877866-3.54077091.743707-.19953114 1.487414.0181392 1.890104.51878099zm70.652166 6.05486333c1.864709 2.8551094 3.598816 5.7392414 5.195065 8.6451405.246693.3881788.272088.8162638.141486 1.2407209-.141486.4679913-.391807.7582184-.816264.9867723-2.905899 1.5273202-5.699335 3.1525921-8.402075 4.8576764-.62036.3990623-1.36044.3337612-1.857454-.1886476-2.967572-3.0473848-6.167326-5.9968179-9.581123-8.8083932-.438968-.4099458-.663894-.9396103-.580454-1.5273202.079813-.58771.431713-1.0339342.972261-1.2588602 4.142992-1.7413627 8.460121-3.2940778 12.929618-4.6254948.758219-.2285538 1.559971.0544176 1.99894.6784059zm-65.925091-.6892894c4.458614 1.3423005 8.757603 2.8913877 12.882456 4.6363783.529665.224926.896076.6711502.979517 1.2588602.079812.5877099-.148742 1.1173744-.591338 1.5273202-3.149742 2.6107485-6.118055 5.334108-8.896224 8.1439368l-.637737.6499451c-.489758.5296645-1.269744.6022212-1.900988.2031589-2.677345-1.7087121-5.470781-3.3412397-8.354913-4.8721878-.431713-.2321817-.663895-.518781-.812636-.9867722-.126974-.428085-.108835-.8525422.141486-1.2334653 1.57811-2.9058991 3.294077-5.7900311 5.147903-8.6378848.442597-.6239883 1.291511-.9214711 2.042474-.6892894z" fill="#b99142"/><path d="m250.427673 166.845147c2.764129 1.661471 5.923788 2.700624 9.412608 3.102763-9.633677 50.870459-52.12299 87.421689-101.552022 91.507837-.65466-5.125702 2.793846-9.907092 7.896553-10.880483l1.453878-.259705c41.50677-7.667077 74.587734-40.086276 82.561209-82.225028zm-192.4003798 30.737663c14.281464 26.622806 40.0731682 46.735039 72.0105738 52.675344l.969675.175663.180724.033579c5.100934.996312 8.529288 5.797126 7.848055 10.922037-3.232431-.284424-6.479058-.712715-9.733688-1.286594-35.4649572-6.253429-64.1243981-28.426373-79.9251662-57.874031 3.1619828-1.010276 5.9980536-2.541189 8.5215403-4.54274zm65.3257668-99.9369196c4.135165.0460566 6.879909 1.5735949 7.31296 4.6549076.752948 5.357509-.969844 14.519353-1.705059 21.98145l1.81267-.516555.497816-.14704.699749-.211423.470782-.145817.467117-.147925c2.954961-.946735 2.830097-1.121816 5.81713-1.541617 3.748694-.526844 7.243368 5.508528 7.702227 8.016216l.031669.198156.007929.098264.001449.066714-.001938.079143-.006943.091472c-.056184.545154-.421222 1.526455-2.246268 1.939877l-5.756131 1.304818-.843377.201585-.870836.216529-.526576.135265-.738621.195028c-1.335195.357863-2.912335.808352-5.019029 1.44069l-2.056729.623659.12293.874695c8.385848 6.514705 12.618666 12.832605 14.370425 25.297013 3.19619 22.742079-11.425402 39.291556-18.313627 40.259633-.542311.076216-1.063955.116704-1.565279.123053l-.187044.000783c-5.644834-.024584-8.666069-4.440721-9.574985-10.908-.380316-2.706088-.628533-5.805494-.709143-9.045566l-.049443-2.354317c-.265753-15.254189 1.328806-33.209174 1.362583-41.422851l-3.518362.846635-2.896509.706159-2.712702.669763-2.265718.566628-1.673385.423431c-2.3943894.609213-4.677907 1.20528-6.6891616 1.753044l-1.1328316.311477.1229304.874696c8.4012148 6.624042 11.7557918 14.626321 13.2002238 24.903991 3.196191 22.742079-11.0973903 39.245457-17.8762791 40.198167-.5423111.076217-1.0639548.116705-1.5652785.123837h-.1870446c-5.6448339-.024584-8.6660682-4.440721-9.5749849-10.908-.4148902-2.952097-.6725717-6.372274-.7269457-9.93252-.4555032-15.719353 2.1960275-30.797882 2.2590882-39.033075l.0009242-.419823-4.2416822-2.414277c-2.0584895-1.160152-4.0194628-4.006458-4.3114225-6.083859l-.1066262-.733946-.0138581-.135246c-.1194965-1.418899.7963607-1.624704 9.5169568-4.465271l.0530353-1.084437.0419487-1.0206.0244406-.686332.032192-1.048058.0355815-1.445723c.1958215-9.13255-.0876003-19.937728.2081792-24.428488l.2434943-.098956.1348618-.051001.170456-.061654.3276841-.111007c.6440631-.209286 1.6089924-.47268 2.7794938-.637183 5.9041934-.829781 10.0075789.600463 10.5453994 4.427255.7529488 5.357509-.1004669 16.738596-.8356817 24.200693l1.921687-.537295 1.9863113-.56375 4.4389643-1.276359 6.501143-1.877625 3.346659-.954223c1.283996-.362304 2.455936-.687214 3.461036-.956174l.204494-3.341516.223657-3.994333.352943-6.817963.461827-9.192254c.125455-2.416469.239106-4.454696.338023-5.8652134l.243495-.0989567.297295-.1098173.21039-.0724811.257557-.0836405.290997-.0883345c.614337-.1799107 1.419457-.3749134 2.356256-.5065718 1.07349-.1508692 2.087449-.2276523 3.03127-.2276523zm67.33362 39.8146886c1.731073 14.697246-2.743459 39.186353-18.378638 41.383734-.814902.114527-1.591083.175105-2.329898.185334l-.244889.00155c-4.301999-.005386-7.31339-1.742928-9.310748-4.47722l-.111977-.155831-.008692 1.211996-.000274 1.223211.006923 1.240214.01782 1.605124c.110581 7.997123.53775 17.002368.441672 20.187865-.223992 2.372907-1.208024 2.511203-2.286027 2.774203-.102984.024144-.248467.038325-.42976.043565l-.11302.00208h-.121292c-2.04692-.017145-7.27587-.853526-9.388866-1.545519l-.202274-.069255c-2.653046-.630608-.746453-21.971402.237573-42.736552l-.119771-1.253942-.074612-.837856c-1.199436-13.847789-1.436305-35.47634 2.201444-35.987592 3.280107-.460989 10.644688 1.960378 10.704381 3.178451-.034279 1.342775-.068557 2.685551.006502 4.01296 2.713327-5.287179 6.234566-8.792463 10.280032-9.361016 11.808386-1.659561 17.875702 8.191398 19.224391 19.374496zm-99.3600695 15.748092.0037491.630691c-.0024962 6.47947-1.1382987 21.040274-.9410816 33.953463-.0685564 2.685551-.0602813 5.917787.1838067 8.447903l.0360551.340054c.2586523 2.230876.8840115 3.726013 1.9366581 3.720623l.0778777-.003137.0794117-.008529c1.4213799-.199762 7.6713117-8.882888 5.8515863-25.797605l-.220076-1.751493-.1197538-.904282-.1273628-.912393-.090955-.619143-.0946319-.615854c-.9088967-5.779248-2.5558969-12.394259-6.5752836-16.480298zm-22.6554452-14.424116.0617054.428996c2.0437181 14.54181 1.637115 56.075656-24.8224186 59.794301-1.1545978.162268-2.2767599.249735-3.366713.267297l-.5422936.002978c-16.7279598-.086852-25.7268353-16.772222-27.8418531-31.821355-2.98106243-21.211362 6.6015725-46.641359 18.4477832-51.205145 2.3729068.223992 2.9331848 1.037223 4.1955833 2.086266l.2280057-.152828.3197586-.202149.193262-.117242.2263255-.133216.2615056-.148869.2885265-.158359c1.3571943-.730872 3.4952157-1.687253 5.8749731-2.021706 17.9684287-2.525298 24.395899 9.247596 26.4758494 23.381031zm58.3950227 8.509273.005637.670767-.000348.921765-.008856 1.081666-.023973 1.586947-.056731 2.638687c-.165834 6.902634-.494924 16.426903-.427534 25.952072l.03517 2.520787.016681.93965.022031.942896c.038065 1.412042.100973 2.80307.219261 4.029203l.052376.490229.039231.303264c.262445 1.887019.800652 3.172474 1.848589 3.160013l.086089-.004168.088352-.009664c1.405409-.197517 7.546497-8.581939 5.819555-25.106414l-.128604-1.168668-.073262-.609459-.080263-.616016-.08767-.621854c-.869338-5.933068-2.79635-12.559062-7.345731-17.101703zm-81.7614891-23.689287-.141685.001034c-.1899133.004253-.3838294.020041-.5817868.047862-8.2002686 1.152473-10.3828664 13.389343-10.9797845 21.835473-.0288937.499601-.2669905.764315-.7142905.794143l-.0863204.00284-.0912235-.002665c-.7373511-.001674-2.9634211-.689192-3.8388022-1.240555l-.1398801-.095718.0019634.01579-.012924.065334-.2954418 1.141484c-.7761805 3.087122-2.6608816 11.803614-1.43648 23.663066 1.2211784 10.950151 5.2101005 19.398184 11.230504 19.425131l.1907924-.001955c.255288-.006358.5141638-.027755.7765724-.064634 15.2168778-2.138593 14.2037016-43.552204 13.2347969-53.257758l-.058827-.551377c-.6156977-5.867383-2.7802751-11.614943-6.9169958-11.774249zm205.5398311-41.7919823.173832.0017184c4.013155.0604931 9.034592 1.8091654 9.271595 3.4955265l-.739353 4.4433534-.719377 4.476919-.465405 2.985711-.397173 2.6173265-.374739 2.5443895-.258138 1.807528c-.657182 4.670172-1.193476 9.050305-1.331222 11.719608 2.513565-6.708559 5.833269-10.854498 10.206745-11.46915.498577-.070071.999936-.103203 1.502225-.101618l.251213.003676c7.789484.202993 15.728096 8.658042 16.914221 17.097759 1.244671 8.85629.046111 41.581717-17.338459 44.024959-1.448799.203615-2.841109.308259-4.175267.31585l-.285.000142c-6.913321-.032662-12.242334-2.700337-15.751307-7.730941-2.319667 4.188697-6.331902 8.134986-11.473674 8.857614-.71833.100955-1.400036.155169-2.046893.166544l-.275097.002263c-8.287455-.010231-10.718007-7.178848-11.201907-12.914139l-.030929-.40169-.890062.013594-.21785 1.043095-.118022.524805-.129155.548531-.138853.563709-.098745.386273c-1.501575 5.787587-4.647049 14.075421-9.940285 14.819337-.306143.043026-.621848.067605-.945522.074544l-.195149.002054c-6.143823-.001575-14.992188-6.18043-15.974402-13.169246-1.797857-12.792419 1.016526-41.954054 6.155361-42.67627.672422-.094503 1.339458-.138075 1.991222-.139488l.216675.001079c3.601374.043599 6.697447 1.35835 7.592837 2.440392l-.251212 1.478692c-2.117086 12.720603-3.730434 29.182743-1.700418 39.646398l.123638.608517 1.482846.237586c5.775153-10.474676 9.597858-34.841741 10.020049-46.271462l.017066-.518242c-.02896-.999398 1.221618-1.621142 2.971009-1.867002.414919-.058314.853253-.083558 1.305996-.079882l.170436.002726c3.934766.093508 8.857771 2.299874 8.992136 3.957727l.013745.428903.005514.347708.002361.578669-.00456.708912-.011615.811251c-.135691 7.767463-1.057844 25.555785-.319262 32.178564l.02425.286969.032344.302105.039831.307234.047365.311362c.485911 2.974384 1.998292 6.3722 4.721838 6.332729l.139986-.005014c.094025-.005355.189454-.014762.286296-.028372 3.826792-.537821 5.089253-8.303205 5.403774-10.876727-.074835-.445273-.144407-.88794-.207615-1.337686-2.596905-18.477939 3.063189-63.0915412 5.547205-63.6636399.703059-.1775119 1.517249-.2560593 2.383056-.2537834zm-76.70266 43.0571523-.125312.004097c-.084442.004626-.170689.013061-.258783.025442-5.794857.814414-8.413618 19.467884-8.80191 25.43177-.011857.064383-.090619.098971-.214889.109576l-.065828.003331c-.555379.011091-1.781837-.346041-2.31004-.699392l-.062289-.044122-.066838.652543-.032055.370807c-.103269 1.264495-.228268 3.5284-.057132 5.799864l.050466.491575c.78137 7.257022 3.022033 12.940299 6.692712 12.912121l.12029-.00328c.120797-.005.243116-.016131.366957-.033536 9.000615-1.264954 9.286194-27.96832 8.807293-34.739223l-.150258-2.157754-.046757-.568539-.060156-.627485-.034831-.320183-.037698-.31758c-.368778-2.974651-1.223699-6.204858-3.590308-6.288517zm94.144785-12.21724-.112549.000645c-.114187.002988-.233314.013042-.357624.030513-6.01353.845147-9.083233 18.670021-9.222119 24.821848.013446.095669-.307953.238399-.46176.28288l-.054192.012625-1.826222-.300824c.109337-.015366-.588054 4.542506.222814 11.898812.430957 3.810935 2.404181 6.718163 5.085352 6.718163l.132428-.002332c.132992-.004692.267662-.016493.403913-.035642 10.923851-1.535247 9.283584-34.245541 9.021068-37.304454l-.162995-1.544104-.055088-.4534-.036191-.269503-.042791-.29061-.047897-.292278c-.309124-1.782546-.884592-3.181346-2.376836-3.26835zm-99.771106-74.9371282c31.402298 5.5370725 57.468975 23.5552735 73.997914 48.0533613-.095889.4300915-.191626.8825824-.287564 1.3567189l-.071997.3596491-.135195.6955837-.128398.6846746-.147618.8158195-.147357.8448644c-.515089 3.0063918-1.022135 6.5234545-1.486951 10.3093757-14.355221-27.1904624-40.672599-47.6983323-73.297744-53.4510256-49.208466-8.6767803-96.4131549 19.097556-113.9132008 63.9266536-3.1036718-.666887-6.5374606-.79354-10.2878317-.359637l-.0589261.005029c18.1242081-50.9841537 70.8990366-82.950659 125.9648686-73.2410672zm-19.615639-37.7153428c.266652 0 .483513.15390103.584193.37664259l.024528.06239058 3.294095 10.22166193 10.738806-.0161607c.272039 0 .527917.1696876.60872.4363397.081477.234555 0 .4940058-.184266.6683961l-.052758.0453695-8.694473 6.2838306 3.339885 10.2108881c.083497.2693455-.010774.5521583-.231637.7083787-.121206.0834971-.237024.1131251-.374391.118512-.107738 0-.213752-.0224096-.305631-.0741239l-.066065-.0443881-8.681006-6.321539-8.664845 6.321539c-.220863.1669942-.52253.1669942-.7407 0-.202458-.1432021-.30307-.3927769-.258268-.6408428l.015857-.0675359 3.347965-10.2108881-8.69986-6.2838306c-.21817-.1696877-.317828-.4578874-.234331-.7137656.076539-.2419621.295663-.4069736.541191-.4327952l.06753-.0035445 10.725338.0161607 3.307563-10.22166193c.08619-.25587823.320521-.43903317.59256-.43903317z" fill="#163424" fill-rule="nonzero"/></g></g></svg>